<?xml version="1.0" encoding="UTF-8" standalone="no"?>
<svg
   xmlns:dc="http://purl.org/dc/elements/1.1/"
   xmlns:cc="http://creativecommons.org/ns#"
   xmlns:rdf="http://www.w3.org/1999/02/22-rdf-syntax-ns#"
   xmlns:svg="http://www.w3.org/2000/svg"
   xmlns="http://www.w3.org/2000/svg"
   xmlns:sodipodi="http://sodipodi.sourceforge.net/DTD/sodipodi-0.dtd"
   xmlns:inkscape="http://www.inkscape.org/namespaces/inkscape"
   inkscape:version="1.0 (4035a4fb49, 2020-05-01)"
   sodipodi:docname="image_1.svg"
   id="svg178"
   version="1.1"
   fill="none"
   viewBox="0 0 459 366"
   height="366"
   width="459">
  <metadata
     id="metadata182">
    <rdf:RDF>
      <cc:Work
         rdf:about="">
        <dc:format>image/svg+xml</dc:format>
        <dc:type
           rdf:resource="http://purl.org/dc/dcmitype/StillImage" />
      </cc:Work>
    </rdf:RDF>
  </metadata>
  <sodipodi:namedview
     inkscape:current-layer="svg178"
     inkscape:window-maximized="1"
     inkscape:window-y="-8"
     inkscape:window-x="-8"
     inkscape:cy="225.32633"
     inkscape:cx="173.85829"
     inkscape:zoom="0.73497268"
     showgrid="false"
     id="namedview180"
     inkscape:window-height="705"
     inkscape:window-width="1366"
     inkscape:pageshadow="2"
     inkscape:pageopacity="0"
     guidetolerance="10"
     gridtolerance="10"
     objecttolerance="10"
     borderopacity="1"
     bordercolor="#666666"
     pagecolor="#ffffff" />
  <g
     id="g1092">
    <circle
       style="fill:#ffffff;fill-rule:evenodd;stroke:none;stroke-width:2.02003"
       id="path184"
       cx="71.642006"
       cy="174.83643"
       r="298.31824" />
    <g
       clip-path="url(#clip0)"
       id="g164"
       transform="translate(-157.85799,-7.7765742)">
      <path
         d="m 27.4392,345.592 c 0,0 -19.64518,-1.183 -17.3307,12.56 0,0 -0.46476,2.426 1.7428,3.53 0,0 0.0372,-1.02 2.0171,-0.672 0.7044,0.118 1.4206,0.152 2.1332,0.102 0.9647,-0.066 1.8816,-0.444 2.6119,-1.077 0,0 5.5213,-2.277 7.6731,-11.285 0,0 1.5894,-1.966 1.5244,-2.472 l -3.3137,1.392 c 0,0 1.1293,2.388 0.2416,4.369 0,0 -0.1115,-4.281 -0.7482,-4.175 -0.1301,0.024 -1.7196,0.831 -1.7196,0.831 0,0 1.9473,4.174 0.4648,7.18 0,0 0.5577,-5.126 -1.0876,-6.884 l -2.3237,1.364 c 0,0 2.2819,4.295 0.7343,7.797 0,0 0.395,-5.376 -1.2223,-7.468 l -2.1147,1.647 c 0,0 2.1379,4.235 0.832,7.139 0,0 -0.1674,-6.258 -1.2921,-6.731 0,0 -1.859,1.628 -2.1332,2.32 0,0 1.4686,3.07 0.5577,4.694 0,0 -0.5577,-4.175 -1.0131,-4.175 0,0 -1.8591,2.76 -2.0357,4.638 0,0 0.079,-2.82 1.5848,-4.921 -1.0629,0.2 -2.0437,0.706 -2.821,1.456 0,0 0.2881,-1.952 3.2765,-2.124 0,0 1.5244,-2.092 1.9334,-2.222 0,0 -2.9744,-0.246 -4.7777,0.552 0,0 1.5848,-1.855 5.3214,-1.006 l 2.0914,-1.703 c 0,0 -3.9178,-0.533 -5.577,0.056 0,0 1.9101,-1.628 6.1394,-0.44 l 2.2726,-1.355 c 0,0 -3.3415,-0.719 -5.3307,-0.464 0,0 2.1007,-1.132 5.9953,0.093 l 1.6267,-0.728 c 0,0 -2.4493,-0.464 -3.165,-0.557 -0.7157,-0.093 -0.7529,-0.273 -0.7529,-0.273 1.5499,-0.258 3.1411,-0.082 4.5964,0.51 0,0 3.4485,-1.28 3.3881,-1.498 z"
         fill="#0084f8"
         id="path2" />
      <path
         opacity="0.1"
         d="m 13.9054,365.226 c 7.6798,0 13.9055,-1.051 13.9055,-2.347 0,-1.296 -6.2257,-2.347 -13.9055,-2.347 C 6.22567,360.532 0,361.583 0,362.879 c 0,1.296 6.22567,2.347 13.9054,2.347 z"
         fill="#0084f8"
         id="path4" />
      <path
         d="m 458.791,314.38 c 0,0 -11.08,-0.668 -9.76,7.078 -0.068,0.394 -0.009,0.799 0.168,1.157 0.177,0.358 0.463,0.651 0.817,0.838 0,0 0,-0.576 1.134,-0.381 0.398,0.065 0.802,0.084 1.204,0.056 0.544,-0.036 1.061,-0.248 1.473,-0.603 0,0 3.114,-1.285 4.327,-6.364 0,0 0.892,-1.109 0.86,-1.391 l -1.859,0.797 c 0,0 0.637,1.345 0.135,2.468 0,0 -0.061,-2.417 -0.419,-2.361 -0.074,0 -0.976,0.464 -0.976,0.464 0,0 1.102,2.319 0.275,4.045 0,0 0.311,-2.886 -0.614,-3.878 l -1.32,0.765 c 0,0 1.288,2.426 0.414,4.402 0,0 0.228,-3.034 -0.688,-4.212 l -1.194,0.928 c 0,0 1.208,2.384 0.464,4.026 0,0 -0.097,-3.53 -0.729,-3.794 -0.453,0.381 -0.857,0.815 -1.204,1.294 0,0 0.827,1.73 0.316,2.649 0,0 -0.316,-2.352 -0.576,-2.361 0,0 -1.037,1.553 -1.144,2.62 0.048,-0.989 0.356,-1.949 0.893,-2.783 -0.6,0.114 -1.153,0.401 -1.59,0.826 0,0 0.163,-1.104 1.859,-1.201 0,0 0.86,-1.179 1.092,-1.253 0,0 -1.677,-0.139 -2.695,0.311 0,0 0.897,-1.039 3.002,-0.566 l 1.176,-0.96 c 0,0 -2.208,-0.302 -3.142,0.032 0,0 1.078,-0.927 3.458,-0.25 l 1.283,-0.765 c -0.986,-0.216 -1.995,-0.302 -3.003,-0.255 0,0 1.181,-0.641 3.379,0.051 l 0.93,-0.413 c 0,0 -1.395,-0.269 -1.78,-0.311 -0.386,-0.042 -0.428,-0.153 -0.428,-0.153 0.875,-0.145 1.772,-0.046 2.593,0.287 0,0 1.901,-0.718 1.869,-0.839 z"
         fill="#0084f8"
         id="path6" />
      <path
         opacity="0.1"
         d="m 451.16,325.447 c 4.33,0 7.84,-0.592 7.84,-1.322 0,-0.73 -3.51,-1.322 -7.84,-1.322 -4.331,0 -7.841,0.592 -7.841,1.322 0,0.73 3.51,1.322 7.841,1.322 z"
         fill="#0084f8"
         id="path8" />
      <path
         d="m 436.009,335.471 c 0,0 -13.376,-0.803 -11.777,8.557 -0.081,0.476 -0.01,0.964 0.204,1.397 0.213,0.432 0.558,0.786 0.986,1.011 0,0 0,-0.696 1.394,-0.464 0.48,0.081 0.969,0.104 1.454,0.069 0.656,-0.045 1.279,-0.302 1.776,-0.732 0,0 3.76,-1.55 5.219,-7.682 0,0 1.083,-1.34 1.041,-1.683 l -2.259,0.964 c 0,0 0.772,1.624 0.168,2.974 0,0 -0.075,-2.918 -0.507,-2.848 -0.088,0 -1.176,0.561 -1.176,0.561 0,0 1.33,2.834 0.326,4.889 0,0 0.381,-3.488 -0.739,-4.68 l -1.59,0.927 c 0,0 1.553,2.927 0.502,5.311 0,0 0.27,-3.659 -0.836,-5.102 l -1.436,1.118 c 0,0 1.454,2.885 0.566,4.861 0,0 -0.116,-4.258 -0.882,-4.578 0,0 -1.26,1.104 -1.451,1.563 0,0 1,2.092 0.382,3.196 0,0 -0.382,-2.839 -0.693,-2.853 0,0 -1.255,1.879 -1.394,3.168 0.062,-1.191 0.436,-2.345 1.083,-3.349 -0.725,0.137 -1.394,0.482 -1.924,0.993 0,0 0.195,-1.327 2.23,-1.443 0,0 1.037,-1.428 1.316,-1.516 0,0 -2.027,-0.167 -3.254,0.375 0,0 1.083,-1.252 3.625,-0.681 l 1.423,-1.16 c 0,0 -2.668,-0.366 -3.797,0.037 0,0 1.301,-1.109 4.182,-0.301 l 1.548,-0.928 c 0,0 -2.273,-0.487 -3.625,-0.311 0,0 1.427,-0.77 4.08,0.065 l 1.107,-0.496 c 0,0 -1.669,-0.33 -2.152,-0.381 -0.484,-0.051 -0.516,-0.185 -0.516,-0.185 1.055,-0.175 2.137,-0.055 3.128,0.348 0,0 2.305,-0.863 2.268,-1.011 z"
         fill="#0084f8"
         id="path10" />
      <path
         opacity="0.1"
         d="m 426.793,348.834 c 5.228,0 9.467,-0.715 9.467,-1.596 0,-0.881 -4.239,-1.595 -9.467,-1.595 -5.229,0 -9.467,0.714 -9.467,1.595 0,0.881 4.238,1.596 9.467,1.596 z"
         fill="#0084f8"
         id="path12" />
      <path
         opacity="0.1"
         d="m 374.354,343.625 c 23.699,0 42.911,-2.993 42.911,-6.684 0,-3.691 -19.212,-6.684 -42.911,-6.684 -23.698,0 -42.91,2.993 -42.91,6.684 0,3.691 19.212,6.684 42.91,6.684 z"
         fill="#0084f8"
         id="path14" />
      <path
         opacity="0.1"
         d="m 238.567,361.019 c 26.63,0 48.219,-2.162 48.219,-4.829 0,-2.667 -21.589,-4.828 -48.219,-4.828 -26.63,0 -48.218,2.161 -48.218,4.828 0,2.667 21.588,4.829 48.218,4.829 z"
         fill="#0084f8"
         id="path16" />
      <path
         opacity="0.1"
         d="m 92.4813,356.223 c 20.2137,0 36.5997,-1.01 36.5997,-2.255 0,-1.245 -16.386,-2.254 -36.5997,-2.254 -20.2133,0 -36.5993,1.009 -36.5993,2.254 0,1.245 16.386,2.255 36.5993,2.255 z"
         fill="#0084f8"
         id="path18" />
      <path
         opacity="0.1"
         d="M 157.463,15.8865 C 171.039,3.8267 192.352,1.35444 211.746,2.31459 272.671,5.33417 327.665,34.6905 375.237,67.8966 c 17.224,12.018 34.178,24.973 45.356,41.5274 22.773,33.693 16.006,80.374 -15.635,108.135 -10.768,9.443 -23.818,16.698 -37.217,23.103 -23.823,11.415 -49.529,20.576 -76.564,23.192 -19.282,1.856 -38.802,0.348 -57.968,-2.249 C 179.651,254.35 127.082,238.32 83.0236,210.907 63.6992,198.847 45.4808,183.912 37.515,164.454 c -7.9659,-19.458 -2.8676,-44.116 16.8659,-55.633 8.161,-4.764 17.9209,-6.916 27.4715,-8.9335 14.0635,-2.9732 28.3496,-5.9047 41.0426,-11.9531 13.106,-6.2433 28.624,-18.317 26.026,-32.1347 -2.779,-14.8289 -5.015,-27.8534 8.542,-39.9132 z"
         fill="#0084f8"
         id="path20" />
      <path
         opacity="0.9"
         d="M 269.957,181.722 V 93.1571 H 282.04 V 66.7184 h -86.583 v 26.4387 h 12.083 v 88.5649 c -16.687,6.326 -31.053,17.565 -41.191,32.228 -10.138,14.663 -15.57,32.056 -15.574,49.872 0,48.494 39.393,87.804 87.983,87.804 48.59,0 87.978,-39.31 87.978,-87.804 -0.005,-17.817 -5.438,-35.212 -15.579,-49.875 -10.141,-14.663 -24.51,-25.902 -41.2,-32.225 z"
         fill="#96b7fe"
         id="path22" />
      <path
         opacity="0.1"
         d="m 269.957,92.8835 h -62.435 v 1.1921 h 62.435 z"
         fill="#000000"
         id="path24" />
      <path
         d="m 189.531,261.465 c 0,0 52.982,-0.927 79.473,-14.161 26.491,-13.233 41.628,-1.419 40.206,6.61 -1.422,8.029 -8.984,23.6 -39.258,25.511 -30.274,1.911 -80.421,-17.96 -80.421,-17.96 z"
         fill="#0084f8"
         id="path26" />
      <path
         opacity="0.1"
         d="m 189.531,261.465 c 0,0 52.982,-0.927 79.473,-14.161 26.491,-13.233 41.628,-1.419 40.206,6.61 -1.422,8.029 -8.984,23.6 -39.258,25.511 -30.274,1.911 -80.421,-17.96 -80.421,-17.96 z"
         fill="#000000"
         id="path28" />
      <path
         d="m 166.842,252.977 c 0,0 -5.661,78.366 68.584,79.78 74.244,1.415 73.788,-78.852 73.788,-78.852 0,0 -27.42,29.736 -92.234,5.19 0,0.019 -33.584,-8.952 -50.138,-6.118 z"
         fill="#0084f8"
         id="path30" />
      <path
         opacity="0.1"
         d="m 308.973,254.188 c -1.483,18.052 -11.098,74.562 -73.52,73.37 -61.189,-1.155 -68.118,-54.543 -68.662,-73.324 -0.339,10.079 -0.037,77.206 68.649,78.519 74.263,1.391 73.788,-78.853 73.788,-78.853 0,0 -0.092,0.116 -0.255,0.288 z"
         fill="#000000"
         id="path32" />
      <path
         opacity="0.3"
         d="m 235.876,228.779 c 5.321,0 9.635,-4.305 9.635,-9.616 0,-5.31 -4.314,-9.615 -9.635,-9.615 -5.32,0 -9.634,4.305 -9.634,9.615 0,5.311 4.314,9.616 9.634,9.616 z"
         fill="#0084f8"
         id="path34" />
      <path
         opacity="0.3"
         d="m 241.379,186.648 c 3.293,0 5.963,-2.664 5.963,-5.951 0,-3.286 -2.67,-5.951 -5.963,-5.951 -3.293,0 -5.963,2.665 -5.963,5.951 0,3.287 2.67,5.951 5.963,5.951 z"
         fill="#0084f8"
         id="path36" />
      <path
         opacity="0.3"
         d="m 228.073,152.301 c 3.293,0 5.963,-2.664 5.963,-5.951 0,-3.287 -2.67,-5.951 -5.963,-5.951 -3.293,0 -5.963,2.664 -5.963,5.951 0,3.287 2.67,5.951 5.963,5.951 z"
         fill="#0084f8"
         id="path38" />
      <path
         opacity="0.2"
         d="m 176.983,226.58 c -0.511,4.054 -0.409,9.128 3.221,11.021 -3.044,-1.586 9.434,-19.574 7.663,-23.248 -3.787,-7.839 -10.419,8.461 -10.884,12.227 z"
         fill="#ffffff"
         id="path40" />
      <path
         opacity="0.3"
         d="m 223.254,49.0462 c 5.32,0 9.634,-4.305 9.634,-9.6154 0,-5.3104 -4.314,-9.6154 -9.634,-9.6154 -5.321,0 -9.635,4.305 -9.635,9.6154 0,5.3104 4.314,9.6154 9.635,9.6154 z"
         fill="#0084f8"
         id="path42" />
      <path
         opacity="0.3"
         d="m 252.157,30.0938 c 3.955,0 7.162,-3.2001 7.162,-7.1477 0,-3.9476 -3.207,-7.1478 -7.162,-7.1478 -3.956,0 -7.162,3.2002 -7.162,7.1478 0,3.9476 3.206,7.1477 7.162,7.1477 z"
         fill="#0084f8"
         id="path44" />
      <path
         opacity="0.3"
         d="m 231.512,7.43068 c 2.056,0 3.723,-1.66341 3.723,-3.71534 C 235.235,1.66341 233.568,0 231.512,0 c -2.056,0 -3.722,1.66341 -3.722,3.71534 0,2.05193 1.666,3.71534 3.722,3.71534 z"
         fill="#0084f8"
         id="path46" />
      <path
         opacity="0.9"
         d="M 131.902,122.073 H 54.0415 v 23.048 h 11.8652 v 179.811 c -0.047,3.578 0.6185,7.129 1.9578,10.448 1.3393,3.319 3.3257,6.339 5.844,8.886 2.5183,2.546 5.5183,4.568 8.8259,5.948 3.3076,1.38 6.8569,2.091 10.4418,2.091 3.585,0 7.1338,-0.711 10.4418,-2.091 3.308,-1.38 6.308,-3.402 8.826,-5.948 2.518,-2.547 4.505,-5.567 5.844,-8.886 1.339,-3.319 2.005,-6.87 1.958,-10.448 V 145.121 h 11.856 z"
         fill="#96b7fe"
         id="path48" />
      <path
         d="m 83.9437,185.86 c 0,0 19.2683,-6.87 24.6323,-1.985 0,0 -7.804,11.447 -14.9886,10.988 -7.1851,-0.459 -9.6437,-9.003 -9.6437,-9.003 z"
         fill="#0084f8"
         id="path50" />
      <path
         opacity="0.1"
         d="m 83.9437,185.86 c 0,0 19.2683,-6.87 24.6323,-1.985 0,0 -7.804,11.447 -14.9886,10.988 -7.1851,-0.459 -9.6437,-9.003 -9.6437,-9.003 z"
         fill="#000000"
         id="path52" />
      <path
         d="m 108.566,183.893 v 130.506 c 0,2.164 -0.427,4.308 -1.257,6.308 -0.83,2 -2.047,3.817 -3.58,5.348 -1.534,1.531 -3.355,2.745 -5.359,3.573 -2.004,0.829 -4.1518,1.255 -6.3209,1.255 -4.3807,0 -8.5819,-1.736 -11.6795,-4.828 -3.0976,-3.091 -4.8379,-7.284 -4.8379,-11.656 V 183.893 c 0,0 7.952,-2.138 15.4438,2.445 7.4918,4.582 17.5905,-2.445 17.5905,-2.445 z"
         fill="#0084f8"
         id="path54" />
      <path
         opacity="0.1"
         d="M 120.037,144.977 H 65.8975 v 1.062 h 54.1395 z"
         fill="#000000"
         id="path56" />
      <path
         opacity="0.1"
         d="m 92.0491,322.947 c -2.1695,0 -4.3177,-0.426 -6.322,-1.255 -2.0043,-0.829 -3.8253,-2.044 -5.3592,-3.575 -1.5338,-1.531 -2.7504,-3.349 -3.5802,-5.349 -0.8298,-2.001 -1.2566,-4.145 -1.256,-6.31 v 8.242 c 0,4.372 1.7403,8.565 4.8379,11.657 3.0976,3.091 7.2988,4.828 11.6795,4.828 4.3807,0 8.5819,-1.737 11.6799,-4.828 3.097,-3.092 4.837,-7.285 4.837,-11.657 v -8.242 c 10e-4,2.165 -0.426,4.309 -1.256,6.31 -0.829,2 -2.046,3.818 -3.58,5.349 -1.534,1.531 -3.355,2.746 -5.3589,3.575 -2.0043,0.829 -4.1525,1.255 -6.322,1.255 z"
         fill="#000000"
         id="path58" />
      <path
         opacity="0.3"
         d="m 92.0538,171.077 c 1.8583,0 3.3648,-1.503 3.3648,-3.358 0,-1.855 -1.5065,-3.358 -3.3648,-3.358 -1.8584,0 -3.3648,1.503 -3.3648,3.358 0,1.855 1.5064,3.358 3.3648,3.358 z"
         fill="#0084f8"
         id="path60" />
      <path
         opacity="0.3"
         d="m 103.064,157.951 c 1.183,0 2.142,-0.958 2.142,-2.139 0,-1.181 -0.959,-2.138 -2.142,-2.138 -1.183,0 -2.143,0.957 -2.143,2.138 0,1.181 0.96,2.139 2.143,2.139 z"
         fill="#0084f8"
         id="path62" />
      <path
         opacity="0.3"
         d="m 88.0755,153.679 c 1.1833,0 2.1425,-0.958 2.1425,-2.139 0,-1.181 -0.9592,-2.138 -2.1425,-2.138 -1.1833,0 -2.1425,0.957 -2.1425,2.138 0,1.181 0.9592,2.139 2.1425,2.139 z"
         fill="#0084f8"
         id="path64" />
      <path
         opacity="0.2"
         d="m 70.0895,210.554 c -0.5113,4.054 -0.409,9.129 3.2207,11.021 -3.0488,-1.586 9.4345,-19.569 7.6638,-23.247 -3.797,-7.83 -10.4198,8.465 -10.8845,12.226 z"
         fill="#ffffff"
         id="path66" />
      <path
         opacity="0.3"
         d="m 99.0344,107.652 c 4.5146,0 8.1746,-3.653 8.1746,-8.1589 0,-4.506 -3.66,-8.1589 -8.1746,-8.1589 -4.5149,0 -8.175,3.6529 -8.175,8.1589 0,4.5059 3.6601,8.1589 8.175,8.1589 z"
         fill="#0084f8"
         id="path68" />
      <path
         opacity="0.3"
         d="m 74.5093,91.5709 c 3.3573,0 6.079,-2.7163 6.079,-6.067 0,-3.3507 -2.7217,-6.067 -6.079,-6.067 -3.3573,0 -6.079,2.7163 -6.079,6.067 0,3.3507 2.7217,6.067 6.079,6.067 z"
         fill="#0084f8"
         id="path70" />
      <path
         opacity="0.3"
         d="m 92.0259,72.3402 c 1.7454,0 3.1603,-1.4122 3.1603,-3.1541 0,-1.742 -1.4149,-3.1541 -3.1603,-3.1541 -1.7454,0 -3.1603,1.4121 -3.1603,3.1541 0,1.7419 1.4149,3.1541 3.1603,3.1541 z"
         fill="#0084f8"
         id="path72" />
      <path
         d="m 416.354,209.339 c 0,0 -7.134,-35.409 -4.406,-39.816 0,0 0.098,-4.095 -0.065,-9.313 0,-0.2 0,-0.399 0,-0.603 0.478,0.325 0.978,0.616 1.497,0.872 2.514,1.294 5.404,1.666 8.165,1.052 l -2.17,-2.402 c -0.516,-0.575 -1.06,-1.192 -1.171,-1.953 -0.03,-0.732 0.13,-1.459 0.465,-2.11 2.049,-5.172 2.175,-11.68 -1.794,-15.627 -3.337,-3.321 -4.155,-7.607 -7.762,-10.636 -2.649,-2.222 -4.104,-5.478 -5.479,-8.618 -1.162,-2.662 -2.324,-5.343 -2.998,-8.164 -0.52,-2.203 -0.725,-4.48 -1.441,-6.632 -0.715,-2.153 -2.044,-4.245 -4.131,-5.205 -0.774,-0.2695 -1.525,-0.6015 -2.245,-0.9923 -0.892,-0.5984 -1.427,-1.5724 -2.068,-2.4213 -3.253,-4.3183 -14.222,-1.7764 -19.408,-0.0231 -1.409,0.4408 -2.713,1.1619 -3.834,2.1197 l 0.046,-0.0789 0.13,-0.1901 c -0.566,0.4579 -1.055,1.0027 -1.45,1.614 -0.757,1.197 -1.074,2.602 -1.701,3.864 -0.762,1.531 -4.991,5.802 -3.174,7.523 0.125,0.116 0.267,0.21 0.423,0.279 0.678,0.276 1.422,0.35 2.142,0.213 -0.028,0.06 -0.056,0.121 -0.079,0.181 -0.617,1.519 -0.933,3.143 -0.929,4.782 0.03,3.431 1.425,6.71 3.878,9.115 2.452,2.405 5.762,3.74 9.2,3.71 1.359,0.002 2.71,-0.204 4.006,-0.612 0.033,0.162 0.061,0.325 0.088,0.487 0,0.07 0,0.134 0.033,0.199 l -0.228,0.32 -0.037,-0.06 -6.781,9.462 c -1.036,0.724 -7.008,5.038 -7.329,8.271 -0.353,3.539 -0.706,7.685 -0.706,7.685 l -0.047,0.886 c -0.296,0.247 -0.642,0.427 -1.014,0.528 -0.372,0.101 -0.762,0.12 -1.142,0.057 -2.115,-0.348 -2.115,7.774 -2.115,7.774 0,0 -1.394,1.294 -2.375,0.171 -0.98,-1.122 -3.523,2.677 -3.523,2.677 l -16.029,0.691 h -0.367 l -0.865,-2.672 c -0.094,-0.276 -0.292,-0.504 -0.552,-0.638 -0.26,-0.133 -0.562,-0.16 -0.842,-0.076 -0.068,0.018 -0.133,0.045 -0.195,0.079 l -0.056,0.037 c -0.04,0.022 -0.077,0.049 -0.111,0.079 -0.023,0.014 -0.043,0.031 -0.061,0.051 -0.032,0.027 -0.061,0.056 -0.088,0.088 -0.017,0.019 -0.032,0.039 -0.047,0.06 l -0.027,0.028 c -0.1,0.137 -0.166,0.296 -0.194,0.464 -0.027,0.167 -0.015,0.339 0.036,0.501 l 0.743,2.291 c -3.09,0.622 -6.255,2.37 -3.676,7.194 l -13.069,-2.407 4.229,3.539 21.844,4.499 c -0.288,0.52 -0.098,1.266 0.804,2.319 3.88,4.555 10.973,5.789 13.822,6.114 0.748,1.675 1.683,3.26 2.788,4.726 l -0.251,4.537 c 0,0 -7.213,34.597 -8.537,36.355 0.654,-0.759 1.252,-1.565 1.789,-2.412 -2.096,7.111 -5.024,16.842 -5.791,18.299 -1.236,2.319 -2.379,11.744 -0.971,12.352 0.441,0.185 1.664,0.097 3.425,-0.038 v 0.78 l -0.079,29.569 c 0,0 0.353,18.141 -0.618,19.867 -0.972,1.725 -1.232,5.352 -1.232,5.352 0,0 -3.894,7.157 -6.971,10.033 l -0.07,0.06 -0.097,-0.677 c 0,0 -3.718,4.666 -11.889,4.407 0,0 -4.931,3.195 2.38,3.367 7.31,0.172 16.643,-0.26 16.643,-0.26 0,0 6.506,-9.93 11.976,-8.636 v 7.514 h 1.673 v -7.579 c 0.776,-0.511 1.44,-1.173 1.951,-1.948 0.511,-0.774 0.859,-1.644 1.024,-2.556 0.144,-0.938 0.04,-1.898 -0.301,-2.784 -0.342,-0.886 -0.909,-1.668 -1.646,-2.267 -0.332,-0.3 -0.598,-0.665 -0.782,-1.072 -0.184,-0.407 -0.282,-0.847 -0.287,-1.294 l -0.061,0.051 c 0,-0.148 -0.037,-0.301 -0.06,-0.464 -0.465,-3.887 -1.074,-11.883 1.045,-17.811 2.905,-8.122 3.788,-19.43 1.674,-26.17 -0.681,-2.151 -1.24,-4.339 -1.674,-6.554 -0.051,-0.283 -0.102,-0.547 -0.144,-0.798 1.448,0.197 2.881,0.49 4.29,0.877 4.908,1.345 15.63,1.596 24.785,1.526 0.024,0.251 0.051,0.51 0.079,0.775 0.168,1.822 0.514,3.624 1.032,5.38 1.143,3.46 1.673,18.656 1.673,18.656 0,0 1.483,12.5 0.674,17.593 -0.465,2.829 -0.855,5.668 -1.111,8.521 v 0.055 c 0,0 -2.426,6.907 -4.182,10.669 -0.047,0.097 -0.089,0.19 -0.135,0.283 -0.476,0.043 -0.944,0.144 -1.394,0.301 0,0 -2.375,4.75 -4.755,5.529 -2.379,0.779 -1.585,3.368 3.788,2.417 5.372,-0.951 13.478,-1.726 13.478,-1.726 l 0.353,-4.838 1.65,-2.059 -0.418,4.824 1.761,-0.343 -0.232,-5.873 2.7,-3.372 c 0,0 3.253,-2.894 -1.585,-8.59 v 0.121 c -0.051,-0.084 -0.102,-0.167 -0.158,-0.246 v -0.028 c -0.799,-1.243 -1.441,-3.558 -0.27,-7.667 2.115,-7.422 3.347,-14.161 3.347,-14.161 0,0 4.726,-18.048 -0.958,-26.592 h 0.256 c -0.583,-1.202 -0.996,-2.479 -1.227,-3.794 -0.028,-0.158 -0.051,-0.32 -0.079,-0.464 4.183,-0.241 8.333,-1.002 11.693,-2.635 -0.037,-0.051 -2.059,-42.891 -3.732,-49.714 z m -53.368,-29.871 v 0.084 l -0.869,0.041 z m -2.96,0.408 c -0.143,0.031 -0.277,0.094 -0.39,0.186 -0.371,0.525 -0.604,1.134 -0.679,1.772 l -1.348,-0.306 c 0,0 -0.929,-0.2 -2.324,-0.423 l -0.646,-0.644 c 1.794,-0.167 3.635,-0.367 5.387,-0.585 z"
         fill="url(#paint0_linear)"
         id="path74"
         style="fill:url(#paint0_linear)" />
      <path
         d="m 404.619,326.523 -0.516,6.114 1.724,-0.348 -0.26,-6.624 z"
         fill="#1d2366"
         id="path76" />
      <path
         d="m 365.296,297.519 c -2.077,5.905 -1.482,13.878 -1.017,17.751 0.172,1.434 0.33,2.32 0.33,2.32 0,0 -3.105,7.059 -3.365,7.319 -0.261,0.26 -9.147,5.668 -9.147,5.668 l -6.209,3.613 c 0,0 -6.297,-2.755 -3.253,-3.71 0.616,-0.248 1.171,-0.626 1.627,-1.109 3.011,-2.866 6.827,-9.996 6.827,-9.996 0,0 0.255,-3.613 1.204,-5.334 0.948,-1.721 0.604,-19.796 0.604,-19.796 l 0.079,-29.473 v -3.84 l 11.814,0.088 c 0.076,1.305 0.247,2.602 0.511,3.882 0.426,2.206 0.975,4.387 1.645,6.531 2.055,6.73 1.195,17.992 -1.65,26.086 z"
         fill="#ffb0b1"
         id="path78" />
      <path
         opacity="0.1"
         d="m 364.604,317.59 c 0,0 -3.105,7.059 -3.365,7.319 -0.26,0.26 -9.142,5.668 -9.142,5.668 l -6.209,3.613 c 0,0 -6.297,-2.755 -3.253,-3.71 0.616,-0.248 1.171,-0.626 1.627,-1.109 l 0.269,1.883 2.073,-0.088 17.675,-15.895 c 0.167,1.428 0.325,2.319 0.325,2.319 z"
         fill="#000000"
         id="path80" />
      <path
         d="m 364.39,315.679 -17.809,16.011 -2.073,0.084 -0.428,-3.01 c 0,0 -3.625,4.638 -11.646,4.388 0,0 -4.829,3.186 2.323,3.358 7.153,0.171 16.304,-0.26 16.304,-0.26 0,0 6.381,-9.898 11.726,-8.604 v 7.486 h 1.64 v -7.574 c 0.763,-0.513 1.415,-1.175 1.915,-1.946 0.5,-0.771 0.838,-1.635 0.995,-2.54 0.143,-0.932 0.042,-1.885 -0.291,-2.768 -0.334,-0.882 -0.89,-1.664 -1.615,-2.269 -0.325,-0.301 -0.585,-0.666 -0.764,-1.071 -0.179,-0.405 -0.273,-0.842 -0.277,-1.285 z"
         fill="#1d2366"
         id="path82" />
      <path
         d="m 406.26,306.727 c -1.148,4.095 -0.521,6.401 0.26,7.639 v 0.028 c 1.015,1.533 1.721,3.248 2.077,5.051 l 0.075,0.39 -8.106,11.79 -4.396,1.721 c 0,0 -7.074,-2.407 -5.782,-3.098 0.326,-0.172 0.832,-1.062 1.395,-2.319 1.733,-3.711 4.113,-10.604 4.113,-10.604 v -0.06 c 0.246,-2.843 0.646,-5.673 1.087,-8.493 0.79,-5.07 -0.66,-17.528 -0.66,-17.528 0,0 -0.516,-15.145 -1.64,-18.591 -0.506,-1.751 -0.844,-3.547 -1.009,-5.362 -0.232,-2.166 -0.283,-3.933 -0.283,-3.933 0,0 4.647,-6.457 13.194,0.515 0.68,0.559 1.279,1.21 1.78,1.934 5.898,8.349 1.153,26.814 1.153,26.814 0,0 -1.19,6.707 -3.258,14.106 z"
         fill="#ffb0b1"
         id="path84" />
      <path
         opacity="0.1"
         d="m 408.672,319.811 -8.106,11.791 -4.396,1.721 c 0,0 -7.074,-2.407 -5.782,-3.098 0.326,-0.172 0.832,-1.063 1.395,-2.32 2.993,0 4.545,2.821 4.545,2.821 l 3.792,-0.599 c 0,0 5.006,-9.815 6.126,-10.413 1.12,-0.598 0.172,-4.481 0.172,-4.481 v -0.988 l 0.088,0.107 v 0.028 c 1.022,1.536 1.733,3.256 2.091,5.065 z"
         fill="#000000"
         id="path86" />
      <path
         d="m 396.597,330.999 c 0,0 -2.156,-3.956 -6.292,-2.495 0,0 -2.324,4.736 -4.648,5.51 -2.324,0.775 -1.552,3.354 3.718,2.407 5.27,-0.946 13.195,-1.72 13.195,-1.72 l 0.343,-4.82 5.345,-6.799 c 0,0 3.193,-2.886 -1.552,-8.563 v 0.988 c 0,0 0.929,3.873 -0.172,4.476 -1.102,0.603 -6.121,10.413 -6.121,10.413 z"
         fill="#1d2366"
         id="path88" />
      <path
         opacity="0.1"
         d="m 364.776,261.025 c 0.076,1.304 0.247,2.602 0.511,3.882 -4.866,-0.714 -9.379,-0.357 -12.334,-0.13 v -3.84 z"
         fill="#000000"
         id="path90" />
      <path
         opacity="0.1"
         d="m 408.844,266.878 c 0,0 -6.916,0.334 -15.151,0.404 -0.232,-2.166 -0.284,-3.933 -0.284,-3.933 0,0 4.648,-6.457 13.195,0.514 0.68,0.56 1.279,1.211 1.78,1.935 0.134,0.368 0.288,0.728 0.46,1.08 z"
         fill="#000000"
         id="path92" />
      <path
         d="m 408.844,266.104 c 0,0 -30.27,1.461 -39.504,-1.118 -9.235,-2.579 -18.367,-0.348 -19.748,-0.951 -1.38,-0.603 -0.255,-9.982 0.93,-12.306 1.185,-2.323 7.849,-25.821 7.849,-25.821 l 6.382,-33.225 6.729,-1.855 0.465,-0.13 11.716,-3.247 8.594,-2.366 c 0,0 17.075,66.533 15.606,71.431 -0.532,1.88 -0.616,3.857 -0.246,5.775 0.23,1.322 0.643,2.605 1.227,3.813 z"
         fill="#1d2366"
         id="path94" />
      <path
         d="m 342.528,169.959 c 0,0 -6.042,6.457 -1.468,10.07 4.573,3.614 7.589,0.348 7.589,0.348 z"
         fill="#c7daf5"
         id="path96" />
      <path
         opacity="0.1"
         d="m 342.528,169.959 c 0,0 -6.042,6.457 -1.468,10.07 4.573,3.614 7.589,0.348 7.589,0.348 z"
         fill="#000000"
         id="path98" />
      <path
         d="m 391.383,127.444 c 0,0 -0.706,0.668 -1.775,1.665 -1.52,1.415 -3.77,3.488 -5.768,5.228 -2.788,2.402 -5.043,4.174 -4.229,2.657 0.813,-1.516 0.66,-4.123 0.255,-6.577 l -0.083,-0.487 c -0.338,-1.802 -0.785,-3.582 -1.339,-5.329 0,0 4.466,-5.761 6.939,-8.034 0.929,-0.849 1.566,-1.211 1.599,-0.617 0.046,0.807 0.655,2.57 1.394,4.481 0.028,0.055 0.051,0.116 0.074,0.171 0.502,1.285 1.065,2.626 1.562,3.771 0.757,1.758 1.371,3.071 1.371,3.071 z"
         fill="#ffb0b1"
         id="path100" />
      <path
         opacity="0.1"
         d="m 388.446,120.602 c -0.42,2.254 -1.439,4.354 -2.95,6.08 -1.511,1.727 -3.458,3.016 -5.639,3.735 -0.342,-1.968 -0.817,-3.912 -1.422,-5.816 0,0 8.407,-10.845 8.537,-8.651 0.079,0.835 0.702,2.681 1.474,4.652 z"
         fill="#000000"
         id="path102" />
      <path
         opacity="0.1"
         d="m 379.03,133.316 1.087,-1.526 c 0,0 0.721,4.388 3.374,2.454 2.654,-1.934 2.789,14.564 2.789,14.564 l -2.854,42.479 -20.57,-1.23 0.581,-20.524 2.324,-10.33 5.758,-15.042 3.449,-4.968 z"
         fill="#000000"
         id="path104" />
      <path
         d="m 386.271,149.068 -2.575,38.406 -0.27,4.068 -11.47,-0.682 -0.464,-0.028 -8.649,-0.515 0.58,-20.529 2.324,-10.325 5.759,-15.043 3.462,-4.972 4.076,-5.872 1.087,-1.531 c 0,0 0.721,4.393 3.374,2.454 l 0.052,-0.037 c 2.588,-1.661 2.714,14.606 2.714,14.606 z"
         fill="#1d2366"
         id="path106" />
      <path
         d="m 366.068,155.845 c 0,0 -1.032,2.152 -3.105,1.809 -2.072,-0.343 -2.068,7.746 -2.068,7.746 0,0 -1.394,1.289 -2.324,0.172 -0.929,-1.118 -3.448,2.667 -3.448,2.667 l -15.695,0.691 c 0,0 6.972,3.182 5.605,12.825 0,0 23.703,-1.466 24.493,-3.711 0.79,-2.245 -3.458,-22.199 -3.458,-22.199 z"
         fill="#ffffff"
         id="path108" />
      <path
         opacity="0.03"
         d="m 366.068,155.845 c 0,0 -1.032,2.152 -3.105,1.809 -2.072,-0.343 -2.068,7.746 -2.068,7.746 0,0 -1.394,1.289 -2.324,0.172 -0.929,-1.118 -3.448,2.667 -3.448,2.667 l -15.695,0.691 c 0,0 6.972,3.182 5.605,12.825 0,0 23.703,-1.466 24.493,-3.711 0.79,-2.245 -3.458,-22.199 -3.458,-22.199 z"
         fill="#000000"
         id="path110" />
      <path
         d="m 320.448,174.004 4.141,3.53 34.066,7.143 -4.229,-4.3 z"
         fill="#ffffff"
         id="path112" />
      <path
         d="m 379.09,134.671 c -0.562,0.844 -2.179,5.278 -3.537,9.133 -1.124,3.209 -2.068,6.029 -2.068,6.029 0,0 -2.198,14.291 -3.318,16.87 -1.12,2.579 -0.516,12.663 -0.516,12.663 l -4.183,24.876 c 0,0 -1.896,12.825 -4.824,20.483 -2.872,7.519 -6.125,11.058 -6.214,11.164 1.297,-1.748 8.366,-36.23 8.366,-36.23 l 2.324,-43.471 c 0,0 0.344,-4.128 0.692,-7.658 0.349,-3.53 7.329,-8.349 7.329,-8.349 l 6.749,-9.578 c 0.692,0.941 0.237,2.518 -0.8,4.068 z"
         fill="#ffffff"
         id="path114" />
      <path
         d="m 361.49,190.531 c 0,0 -9.918,-0.427 -14.747,-6.197 -4.828,-5.77 11.127,-2.319 11.127,-2.319 l 4.136,0.927 z"
         fill="#ffb0b1"
         id="path116" />
      <path
         opacity="0.1"
         d="m 407.896,256.549 c -0.532,1.879 -0.617,3.857 -0.247,5.774 -10.838,0.77 -22.433,-2.161 -22.433,-2.161 -2.157,1.981 -7.85,4.907 -7.85,4.907 l -3.105,-38.392 c -1.979,-5.167 -2.756,-32.278 -2.756,-32.278 0,0 0.177,-1.419 0.465,-3.544 0,-0.051 0,-0.106 0.023,-0.157 0.777,-5.938 2.324,-17.084 3.059,-18.591 1.036,-2.064 -3.189,-7.57 -3.189,-7.57 l 1.92,-16.364 0.232,-1.971 c 4.057,-1.809 7.162,-7.575 7.162,-7.575 l 2.38,-4.174 c 2.598,-1.661 2.723,14.606 2.723,14.606 l -2.575,38.406 8.594,-2.366 c 0,0 17.061,66.542 15.597,71.45 z"
         fill="#000000"
         id="path118" />
      <path
         d="m 419.022,259.216 c -11.814,5.853 -33.29,0.431 -33.29,0.431 -2.157,1.981 -7.85,4.907 -7.85,4.907 l -3.105,-38.391 c -1.979,-5.163 -2.756,-32.274 -2.756,-32.274 0,0 2.501,-20.228 3.533,-22.292 0.302,-0.603 0.158,-1.498 -0.2,-2.463 -1.764,-4.599 -2.412,-9.548 -1.892,-14.444 l 0.827,-7.027 0.233,-1.972 c 4.052,-1.809 7.157,-7.579 7.157,-7.579 l 2.161,-3.775 3.978,-6.958 1.883,-3.293 0.316,0.287 2.444,2.208 c 0,0 1.037,0.854 2.589,2.166 3.383,2.844 9.23,7.853 12.242,10.914 2.653,2.705 3.49,13.201 3.718,21.105 0.162,5.2 0.065,9.277 0.065,9.277 -2.677,4.388 4.308,39.681 4.308,39.681 1.654,6.8 3.639,49.492 3.639,49.492 z"
         fill="#ffffff"
         id="path120" />
      <path
         opacity="0.03"
         d="m 396.347,138.029 c 0,0 -8.11,15.409 -7.158,21.258 0.953,5.849 3.621,12.481 2.324,14.031 -0.443,0.586 -1.017,1.062 -1.676,1.391 -0.659,0.328 -1.385,0.5 -2.121,0.501 -1.292,0.088 -4.745,2.496 -4.745,2.755 0,0.26 -3.188,0.26 -6.042,1.466 -2.853,1.206 -7.073,1.892 -7.073,1.892 0,0 -8.194,-0.259 -8.97,0.515 -0.776,0.775 -1.552,5.423 0.088,9.124 1.641,3.701 3.449,6.457 4.829,6.958 1.38,0.501 10.09,-2.408 17.159,-3.099 7.069,-0.691 14.779,-6.266 14.779,-6.266 0,0 8.449,-3.015 9.918,-8.094 1.468,-5.079 -1.813,-32.965 -1.813,-32.965 0,0 -2.528,-12.997 -9.499,-9.467 z"
         fill="#000000"
         id="path122" />
      <path
         opacity="0.03"
         d="m 395.306,136.739 c 0,0 -8.106,15.404 -7.158,21.258 0.948,5.854 3.621,12.482 2.324,14.031 -0.443,0.587 -1.017,1.063 -1.676,1.391 -0.659,0.329 -1.385,0.5 -2.121,0.502 -1.292,0.088 -4.74,2.495 -4.74,2.755 0,0.26 -3.193,0.255 -6.042,1.461 -2.849,1.206 -7.074,1.892 -7.074,1.892 0,0 -8.193,-0.255 -8.97,0.52 -0.776,0.774 -1.552,5.422 0.089,9.124 1.64,3.701 3.448,6.456 4.829,6.957 1.38,0.501 10.089,-2.412 17.163,-3.098 7.073,-0.687 14.756,-6.281 14.756,-6.281 0,0 8.449,-3.01 9.918,-8.089 1.468,-5.079 -1.813,-32.965 -1.813,-32.965 0,0 -2.5,-12.987 -9.485,-9.458 z"
         fill="#000000"
         id="path124" />
      <path
         d="m 396.082,137.254 c 0,0 -8.101,15.409 -7.172,21.239 0.93,5.831 3.621,12.482 2.324,14.031 -0.443,0.588 -1.016,1.065 -1.675,1.393 -0.659,0.328 -1.385,0.5 -2.122,0.5 -1.292,0.088 -4.74,2.495 -4.74,2.755 0,0.26 -3.193,0.26 -6.042,1.466 -2.849,1.206 -7.074,1.892 -7.074,1.892 0,0 -8.193,-0.259 -8.969,0.515 -0.777,0.775 -1.553,5.422 0.088,9.124 1.64,3.701 3.448,6.456 4.829,6.957 1.38,0.501 10.09,-2.407 17.163,-3.098 7.074,-0.691 14.747,-6.28 14.747,-6.28 0,0 8.449,-3.015 9.918,-8.094 1.468,-5.079 -1.813,-32.965 -1.813,-32.965 0,0 -2.477,-12.965 -9.462,-9.435 z"
         fill="#ffffff"
         id="path126" />
      <path
         opacity="0.1"
         d="m 395.91,178.568 c 0,0 -6.47,-1.289 -4.225,0.863 2.245,2.152 2.24,4.045 5.001,3.956 2.76,-0.088 -0.776,-4.819 -0.776,-4.819 z"
         fill="#000000"
         id="path128" />
      <path
         opacity="0.1"
         d="m 406.864,224.961 c 0,0 -2.933,1.981 2.672,6.54 5.605,4.56 -2.672,-6.54 -2.672,-6.54 z"
         fill="#000000"
         id="path130" />
      <path
         opacity="0.1"
         d="m 401.254,241.228 c 0,0.26 -1.031,9.467 2.849,11.791 3.881,2.324 -2.849,-11.791 -2.849,-11.791 z"
         fill="#000000"
         id="path132" />
      <path
         d="m 339.679,168.92 c -3.123,0.107 -9.885,1.063 -6.381,7.584 3.1,5.77 8.305,1.916 11.219,-1.016 -0.711,-2.726 -2.442,-5.077 -4.838,-6.568 z"
         fill="#ffb0b1"
         id="path134" />
      <path
         d="m 344.568,175.438 c 0.047,-0.042 0.089,-0.089 0.131,-0.131 -0.042,0.042 -0.084,0.089 -0.131,0.131 z"
         fill="#ffb0b1"
         id="path136" />
      <path
         opacity="0.1"
         d="m 395.05,129.003 c -3.318,2.263 -6.102,4.174 -6.642,4.573 -1.491,1.095 -4.336,7.551 -6.148,10.844 -1.459,2.654 -6.186,3.335 -7.971,3.502 l 0.214,-1.952 c 4.053,-1.805 7.157,-7.575 7.157,-7.575 l 8.022,-14.026 2.761,2.495 c 0,0 1.055,0.83 2.607,2.139 z"
         fill="#000000"
         id="path138" />
      <path
         d="m 395.05,128.747 c -3.318,2.259 -6.102,4.175 -6.642,4.569 -1.491,1.099 -4.336,7.551 -6.148,10.845 -1.459,2.653 -6.186,3.335 -7.971,3.502 l 0.233,-1.972 c 4.052,-1.809 7.157,-7.579 7.157,-7.579 l 8.022,-14.026 2.76,2.495 c 0,0 1.037,0.835 2.589,2.166 z"
         fill="#dce7ff"
         id="path140" />
      <path
         d="m 388.664,117.759 c 0.003,0.898 -0.092,1.794 -0.283,2.672 -0.346,1.64 -1.016,3.195 -1.971,4.573 -1.736,2.52 -4.319,4.335 -7.282,5.117 -2.962,0.781 -6.107,0.477 -8.863,-0.858 -2.757,-1.335 -4.943,-3.612 -6.162,-6.417 -1.218,-2.806 -1.389,-5.955 -0.48,-8.875 0.909,-2.92 2.836,-5.419 5.433,-7.042 2.596,-1.624 5.69,-2.265 8.719,-1.806 3.029,0.458 5.794,1.985 7.792,4.303 1.998,2.319 3.097,5.275 3.097,8.333 z"
         fill="#ffb0b1"
         id="path142" />
      <path
         opacity="0.1"
         d="m 411.023,160.766 c -1.754,-1.077 -3.182,-2.61 -4.131,-4.434 -0.721,-1.424 -1.199,-3.062 -2.436,-4.077 -1.106,-0.9 -2.602,-1.123 -3.973,-1.526 -4.541,-1.341 -8.366,-5.483 -8.496,-10.205 -0.065,-2.222 0.628,-4.443 0.311,-6.642 -0.178,-1.248 -0.676,-2.428 -1.445,-3.428 -0.376,-0.481 -0.792,-0.93 -1.245,-1.34 -0.605,-0.571 -1.241,-1.123 -1.79,-1.73 -0.356,-0.373 -0.667,-0.786 -0.929,-1.229 -0.205,-0.364 -0.372,-0.748 -0.498,-1.146 -0.845,-2.635 -0.079,-5.77 -1.027,-8.437 0,-0.047 -0.032,-0.098 -0.051,-0.144 -0.362,-0.951 -1.092,-1.897 -2.1,-1.971 -1.009,-0.075 -1.887,0.765 -2.854,1.145 -2.026,0.784 -4.215,-0.552 -5.902,-1.915 -1.687,-1.364 -3.593,-2.923 -5.745,-2.616 -1.417,0.199 -2.542,1.168 -3.848,1.669 -0.303,0.111 -0.613,0.198 -0.929,0.26 1.109,-2.754 3.145,-5.037 5.757,-6.457 2.611,-1.419 5.637,-1.888 8.557,-1.325 2.92,0.564 5.553,2.124 7.447,4.413 1.893,2.289 2.93,5.164 2.931,8.133 0.003,0.898 -0.092,1.794 -0.284,2.671 0.028,0.056 0.052,0.116 0.075,0.172 0.502,1.285 1.064,2.625 1.561,3.771 l 2.445,2.208 c 0,0 1.036,0.853 2.589,2.166 3.383,2.843 9.23,7.853 12.241,10.914 2.691,2.7 3.528,13.196 3.769,21.1 z"
         fill="#000000"
         id="path144" />
      <path
         d="m 364.743,104.869 c 0.618,-1.257 0.93,-2.662 1.664,-3.85 1.083,-1.7392 2.979,-2.8292 4.917,-3.4972 5.075,-1.744 15.802,-4.2812 19.004,0 0.632,0.8489 1.153,1.8229 2.026,2.4213 0.707,0.3839 1.442,0.7129 2.199,0.9829 2.045,0.961 3.35,3.043 4.048,5.186 0.697,2.143 0.901,4.416 1.394,6.614 0.651,2.811 1.798,5.478 2.937,8.132 1.343,3.13 2.789,6.373 5.363,8.59 3.537,3.019 4.332,7.291 7.599,10.598 3.89,3.934 3.765,10.423 1.761,15.572 -0.332,0.651 -0.491,1.375 -0.464,2.105 0.188,0.746 0.587,1.422 1.148,1.948 l 2.124,2.394 c -2.537,0.546 -5.184,0.253 -7.539,-0.835 -2.355,-1.088 -4.292,-2.911 -5.516,-5.195 -0.725,-1.424 -1.204,-3.061 -2.44,-4.073 -1.106,-0.904 -2.598,-1.122 -3.974,-1.53 -4.541,-1.341 -8.365,-5.483 -8.496,-10.205 -0.065,-2.217 0.628,-4.443 0.316,-6.642 -0.186,-1.232 -0.682,-2.396 -1.44,-3.386 -1.195,-1.549 -2.984,-2.602 -3.951,-4.3 -1.636,-2.88 -0.395,-6.628 -1.575,-9.74 -0.363,-0.928 -1.088,-1.897 -2.101,-1.971 -1.013,-0.075 -1.887,0.77 -2.854,1.145 -2.026,0.784 -4.21,-0.552 -5.897,-1.915 -1.687,-1.364 -3.597,-2.918 -5.745,-2.612 -1.422,0.2 -2.542,1.164 -3.852,1.665 -0.967,0.371 -2.928,0.705 -3.779,-0.111 -1.78,-1.707 2.361,-5.965 3.123,-7.491 z"
         fill="#591d4b"
         id="path146" />
      <path
         opacity="0.1"
         d="m 408.616,154.611 c -0.72,-1.424 -1.199,-3.061 -2.435,-4.077 -1.106,-0.905 -2.603,-1.123 -3.974,-1.526 -4.541,-1.341 -8.365,-5.483 -8.496,-10.205 -0.069,-2.221 0.628,-4.443 0.312,-6.642 -0.178,-1.247 -0.676,-2.428 -1.446,-3.428 -1.189,-1.549 -2.983,-2.606 -3.945,-4.304 -1.641,-2.88 -0.395,-6.628 -1.576,-9.741 -0.362,-0.927 -1.087,-1.897 -2.101,-1.971 -1.013,-0.074 -1.886,0.766 -2.853,1.141 -2.027,0.789 -4.216,-0.547 -5.898,-1.911 -1.682,-1.363 -3.597,-2.917 -5.749,-2.616 -1.394,0.2 -2.537,1.164 -3.848,1.67 -0.967,0.371 -2.928,0.705 -3.779,-0.111 -1.78,-1.717 2.361,-5.975 3.11,-7.496 0.618,-1.257 0.929,-2.662 1.664,-3.8498 l 0.125,-0.1948 c -0.547,0.4618 -1.017,1.0066 -1.394,1.6146 -0.744,1.187 -1.051,2.592 -1.664,3.849 -0.748,1.526 -4.889,5.784 -3.109,7.496 0.846,0.816 2.788,0.464 3.778,0.111 1.306,-0.501 2.426,-1.465 3.848,-1.669 2.147,-0.302 4.058,1.252 5.745,2.616 1.687,1.363 3.876,2.699 5.897,1.915 0.972,-0.376 1.818,-1.224 2.854,-1.145 1.036,0.078 1.743,1.02 2.105,1.971 1.181,3.094 -0.065,6.841 1.571,9.74 0.967,1.693 2.761,2.751 3.951,4.3 0.769,1 1.267,2.18 1.445,3.428 0.316,2.199 -0.381,4.42 -0.311,6.642 0.144,4.727 3.955,8.869 8.495,10.205 1.371,0.403 2.868,0.621 3.974,1.53 1.236,1.011 1.71,2.649 2.435,4.073 1.225,2.283 3.161,4.107 5.517,5.195 2.355,1.088 5.001,1.381 7.538,0.835 l -0.999,-1.132 c -4.387,0.074 -8.798,-2.403 -10.787,-6.313 z"
         fill="#000000"
         id="path148" />
      <path
         opacity="0.1"
         d="m 378.835,134.93 c -0.567,0.845 -2.185,5.279 -3.537,9.129 -1.264,-0.487 -2.417,-3.623 -2.417,-3.623 l 6.734,-9.578 c 0.707,0.946 0.251,2.523 -0.78,4.072 z"
         fill="#000000"
         id="path150" />
      <path
         d="m 379.09,134.671 c -0.562,0.844 -2.179,5.278 -3.537,9.133 -1.264,-0.487 -2.412,-3.623 -2.412,-3.623 l 6.749,-9.578 c 0.692,0.941 0.237,2.518 -0.8,4.068 z"
         fill="#dce7ff"
         id="path152" />
      <path
         d="m 339.86,178.717 -3.741,-11.759 c -0.045,-0.138 -0.062,-0.284 -0.05,-0.428 0.012,-0.145 0.052,-0.286 0.119,-0.416 0.066,-0.129 0.157,-0.244 0.269,-0.338 0.111,-0.094 0.239,-0.165 0.378,-0.209 0.138,-0.046 0.285,-0.064 0.43,-0.053 0.146,0.011 0.288,0.051 0.417,0.118 0.13,0.066 0.246,0.158 0.339,0.269 0.094,0.112 0.165,0.241 0.208,0.38 l 3.741,11.768 -0.371,2.463 z"
         fill="#be8b87"
         id="path154" />
      <path
         opacity="0.1"
         d="m 336.472,165.915 c 0.139,-0.045 0.285,-0.062 0.431,-0.05 0.145,0.012 0.287,0.053 0.416,0.12 0.13,0.067 0.245,0.158 0.339,0.27 0.094,0.111 0.165,0.24 0.209,0.379 l 3.741,11.758 -0.284,1.855 0.275,0.283 0.371,-2.463 -3.741,-11.758 c -0.043,-0.139 -0.114,-0.268 -0.208,-0.38 -0.094,-0.111 -0.209,-0.203 -0.339,-0.27 -0.129,-0.066 -0.271,-0.106 -0.417,-0.117 -0.145,-0.011 -0.292,0.007 -0.43,0.053 -0.233,0.072 -0.435,0.221 -0.572,0.422 0.066,-0.042 0.136,-0.076 0.209,-0.102 z"
         fill="#ffffff"
         id="path156" />
      <path
         d="m 339.86,178.717 2.101,-0.668 -0.307,2.022 -0.065,0.441 -0.613,-0.64 z"
         fill="#efc8c4"
         id="path158" />
      <path
         d="m 340.976,179.872 c 0.038,-0.045 0.084,-0.082 0.135,-0.112 0.03,-0.018 0.064,-0.028 0.1,-0.028 0.035,0 0.069,0.01 0.099,0.028 0.031,0.035 0.056,0.074 0.075,0.116 0.028,0.049 0.067,0.091 0.113,0.122 0.047,0.031 0.101,0.052 0.156,0.059 l -0.065,0.464 z"
         fill="#727a9c"
         id="path160" />
      <path
         d="m 336.101,171.124 c 0,0 7.505,-0.042 5.735,3.14 -1.771,3.182 -4.527,3.571 -4.527,3.571 z"
         fill="#ffb0b1"
         id="path162" />
    </g>
  </g>
  <defs
     id="defs176">
    <linearGradient
       gradientUnits="userSpaceOnUse"
       y2="94.391"
       x2="370.46"
       y1="336.681"
       x1="370.46"
       id="paint0_linear">
      <stop
         id="stop166"
         stop-opacity="0.25"
         stop-color="#808080" />
      <stop
         id="stop168"
         stop-opacity="0.12"
         stop-color="#808080"
         offset="0.54" />
      <stop
         id="stop170"
         stop-opacity="0.1"
         stop-color="#808080"
         offset="1" />
    </linearGradient>
    <clipPath
       id="clip0">
      <rect
         id="rect173"
         fill="white"
         height="365.226"
         width="459" />
    </clipPath>
  </defs>
</svg>
